<svg xmlns="http://www.w3.org/2000/svg" width="32" height="32" viewBox="0 0 256 256"><defs><linearGradient id="gradient1" x1="0%" y1="0%" x2="100%" y2="100%"><stop offset="0%" style="stop-color:#ef4444;stop-opacity:1" /><stop offset="100%" style="stop-color:#f97316;stop-opacity:1" /></linearGradient></defs><path fill="url(#gradient1)" d="M232 128A104 104 0 1 0 24 128a104 104 0 0 0 208 0Z" /><path fill="#ffffff" d="M80 120a12 12 0 1 1 12-12 12 12 0 0 1-12 12Zm48 0a12 12 0 1 1 12-12 12 12 0 0 1-12 12Zm48 0a12 12 0 1 1 12-12 12 12 0 0 1-12 12Z" /></svg>